<svg width="1920" height="955" xmlns="http://www.w3.org/2000/svg"><g><path d="M-123,-24L-133,186L-85,72Z" fill="#f9fff5" stroke="#f9fff5"/><path d="M-123,-24L-85,72L70,-98Z" fill="#f9fdf8" stroke="#f9fdf8"/><path d="M70,-98L-85,72L130,114Z" fill="#f2fbee" stroke="#f2fbee"/><path d="M70,-98L130,114L219,19Z" fill="#ecf8e9" stroke="#ecf8e9"/><path d="M70,-98L219,19L275,-59Z" fill="#e9f7e6" stroke="#e9f7e6"/><path d="M70,-98L275,-59L392,-86Z" fill="#e5f5e2" stroke="#e5f5e2"/><path d="M70,-98L392,-86L543,-116Z" fill="#dff2dc" stroke="#dff2dc"/><path d="M275,-59L219,19L409,120Z" fill="#dff3db" stroke="#dff3db"/><path d="M275,-59L409,120L392,-86Z" fill="#ddf2da" stroke="#ddf2da"/><path d="M392,-86L409,120L530,76Z" fill="#d5efd1" stroke="#d5efd1"/><path d="M392,-86L530,76L543,-116Z" fill="#d4eed1" stroke="#d4eed1"/><path d="M543,-116L530,76L631,-59Z" fill="#cfeccc" stroke="#cfeccc"/><path d="M543,-116L631,-59L779,-24Z" fill="#c8e8c6" stroke="#c8e8c6"/><path d="M543,-116L779,-24L1150,-97Z" fill="#bae2bb" stroke="#bae2bb"/><path d="M543,-116L1150,-97L1555,-100Z" fill="#a2d6af" stroke="#a2d6af"/><path d="M543,-116L1555,-100L1985,-100Z" fill="#92c6a3" stroke="#92c6a3"/><path d="M631,-59L530,76L681,77Z" fill="#c9eac6" stroke="#c9eac6"/><path d="M631,-59L681,77L779,-24Z" fill="#c4e7c3" stroke="#c4e7c3"/><path d="M779,-24L681,77L869,88Z" fill="#bbe4b9" stroke="#bbe4b9"/><path d="M779,-24L869,88L988,-31Z" fill="#b4dfb7" stroke="#b4dfb7"/><path d="M779,-24L988,-31L1150,-97Z" fill="#acdbb4" stroke="#acdbb4"/><path d="M988,-31L869,88L965,103Z" fill="#abdcb0" stroke="#abdcb0"/><path d="M988,-31L965,103L1094,40Z" fill="#a5d9ae" stroke="#a5d9ae"/><path d="M988,-31L1094,40L1150,-97Z" fill="#a2d6af" stroke="#a2d6af"/><path d="M1150,-97L1094,40L1244,-32Z" fill="#9dd1ab" stroke="#9dd1ab"/><path d="M1150,-97L1244,-32L1424,-96Z" fill="#97cba7" stroke="#97cba7"/><path d="M1150,-97L1424,-96L1555,-100Z" fill="#91c5a2" stroke="#91c5a2"/><path d="M1244,-32L1094,40L1312,92Z" fill="#98cea6" stroke="#98cea6"/><path d="M1244,-32L1312,92L1424,-96Z" fill="#94c8a4" stroke="#94c8a4"/><path d="M1424,-96L1312,92L1451,131Z" fill="#8dc39d" stroke="#8dc39d"/><path d="M1424,-96L1451,131L1555,-100Z" fill="#8bbc9f" stroke="#8bbc9f"/><path d="M1555,-100L1451,131L1608,84Z" fill="#84b699" stroke="#84b699"/><path d="M1555,-100L1608,84L1701,-27Z" fill="#81af9a" stroke="#81af9a"/><path d="M1555,-100L1701,-27L1850,-75Z" fill="#80a897" stroke="#80a897"/><path d="M1555,-100L1850,-75L1985,-100Z" fill="#809f94" stroke="#809f94"/><path d="M1701,-27L1608,84L1675,77Z" fill="#7dab94" stroke="#7dab94"/><path d="M1701,-27L1675,77L1916,77Z" fill="#7da291" stroke="#7da291"/><path d="M1701,-27L1916,77L1850,-75Z" fill="#809d93" stroke="#809d93"/><path d="M1850,-75L1916,77L1985,-100Z" fill="#80958f" stroke="#80958f"/><path d="M1985,-100L1916,77L1997,131Z" fill="#7d908a" stroke="#7d908a"/><path d="M1985,-100L1997,131L2082,540Z" fill="#6e8b76" stroke="#6e8b76"/><path d="M-85,72L-133,186L88,174Z" fill="#effde9" stroke="#effde9"/><path d="M-85,72L88,174L130,114Z" fill="#ebfbe5" stroke="#ebfbe5"/><path d="M130,114L88,174L279,230Z" fill="#dcf7d5" stroke="#dcf7d5"/><path d="M130,114L279,230L219,19Z" fill="#e0f6d9" stroke="#e0f6d9"/><path d="M219,19L279,230L409,120Z" fill="#d9f3d2" stroke="#d9f3d2"/><path d="M409,120L279,230L401,250Z" fill="#caf2c2" stroke="#caf2c2"/><path d="M409,120L401,250L573,227Z" fill="#c3efbc" stroke="#c3efbc"/><path d="M409,120L573,227L530,76Z" fill="#c9eec3" stroke="#c9eec3"/><path d="M530,76L573,227L681,77Z" fill="#c4eabe" stroke="#c4eabe"/><path d="M681,77L573,227L667,252Z" fill="#b8e9b2" stroke="#b8e9b2"/><path d="M681,77L667,252L798,191Z" fill="#b4e6af" stroke="#b4e6af"/><path d="M681,77L798,191L869,88Z" fill="#b5e3b2" stroke="#b5e3b2"/><path d="M869,88L798,191L965,103Z" fill="#acdfac" stroke="#acdfac"/><path d="M965,103L798,191L1033,269Z" fill="#9edda0" stroke="#9edda0"/><path d="M965,103L1033,269L1104,229Z" fill="#93d89a" stroke="#93d89a"/><path d="M965,103L1104,229L1094,40Z" fill="#9cd7a4" stroke="#9cd7a4"/><path d="M1094,40L1104,229L1261,188Z" fill="#92d29c" stroke="#92d29c"/><path d="M1094,40L1261,188L1312,92Z" fill="#92ce9f" stroke="#92ce9f"/><path d="M1312,92L1261,188L1451,131Z" fill="#8ac797" stroke="#8ac797"/><path d="M1451,131L1261,188L1453,262Z" fill="#7ec48c" stroke="#7ec48c"/><path d="M1451,131L1453,262L1560,258Z" fill="#73bb84" stroke="#73bb84"/><path d="M1451,131L1560,258L1608,84Z" fill="#7ab68c" stroke="#7ab68c"/><path d="M1608,84L1560,258L1717,256Z" fill="#6dae82" stroke="#6dae82"/><path d="M1608,84L1717,256L1675,77Z" fill="#76ab8b" stroke="#76ab8b"/><path d="M1675,77L1717,256L1892,239Z" fill="#6ea27f" stroke="#6ea27f"/><path d="M1675,77L1892,239L1916,77Z" fill="#779c86" stroke="#779c86"/><path d="M1916,77L1892,239L1997,131Z" fill="#759380" stroke="#759380"/><path d="M1997,131L1892,239L1981,237Z" fill="#6c9176" stroke="#6c9176"/><path d="M1997,131L1981,237L2005,318Z" fill="#688e71" stroke="#688e71"/><path d="M1997,131L2005,318L2082,540Z" fill="#558660" stroke="#558660"/><path d="M-133,186L-114,867L-79,557Z" fill="#a7e6b5" stroke="#a7e6b5"/><path d="M-133,186L-79,557L-53,430Z" fill="#c5f5c5" stroke="#c5f5c5"/><path d="M-133,186L-53,430L88,174Z" fill="#dbfdd5" stroke="#dbfdd5"/><path d="M88,174L-53,430L78,420Z" fill="#c7f5c3" stroke="#c7f5c3"/><path d="M88,174L78,420L171,425Z" fill="#c2f4be" stroke="#c2f4be"/><path d="M88,174L171,425L279,230Z" fill="#caf6c3" stroke="#caf6c3"/><path d="M279,230L171,425L372,397Z" fill="#b4eeb0" stroke="#b4eeb0"/><path d="M279,230L372,397L401,250Z" fill="#baf1b5" stroke="#baf1b5"/><path d="M401,250L372,397L498,316Z" fill="#b0ecab" stroke="#b0ecab"/><path d="M401,250L498,316L573,227Z" fill="#b6eeb0" stroke="#b6eeb0"/><path d="M573,227L498,316L667,252Z" fill="#b0ebaa" stroke="#b0ebaa"/><path d="M667,252L498,316L692,368Z" fill="#a3e79f" stroke="#a3e79f"/><path d="M667,252L692,368L780,317Z" fill="#9be399" stroke="#9be399"/><path d="M667,252L780,317L798,191Z" fill="#a3e5a0" stroke="#a3e5a0"/><path d="M798,191L780,317L1033,269Z" fill="#98e098" stroke="#98e098"/><path d="M1033,269L780,317L1028,330Z" fill="#88da8d" stroke="#88da8d"/><path d="M1033,269L1028,330L1104,229Z" fill="#84d78d" stroke="#84d78d"/><path d="M1104,229L1028,330L1123,434Z" fill="#76d182" stroke="#76d182"/><path d="M1104,229L1123,434L1266,404Z" fill="#6dcb7b" stroke="#6dcb7b"/><path d="M1104,229L1266,404L1261,188Z" fill="#7bcf86" stroke="#7bcf86"/><path d="M1261,188L1266,404L1372,323Z" fill="#6fc77d" stroke="#6fc77d"/><path d="M1261,188L1372,323L1453,262Z" fill="#75c682" stroke="#75c682"/><path d="M1453,262L1372,323L1606,388Z" fill="#61b873" stroke="#61b873"/><path d="M1453,262L1606,388L1560,258Z" fill="#61b474" stroke="#61b474"/><path d="M1560,258L1606,388L1717,256Z" fill="#5cac72" stroke="#5cac72"/><path d="M1717,256L1606,388L1668,429Z" fill="#4fa568" stroke="#4fa568"/><path d="M1717,256L1668,429L1860,389Z" fill="#4f9d65" stroke="#4f9d65"/><path d="M1717,256L1860,389L1892,239Z" fill="#5c9b6c" stroke="#5c9b6c"/><path d="M1892,239L1860,389L2005,318Z" fill="#589165" stroke="#589165"/><path d="M1892,239L2005,318L1981,237Z" fill="#62916c" stroke="#62916c"/><path d="M-53,430L-79,557L95,558Z" fill="#a5e6b1" stroke="#a5e6b1"/><path d="M-53,430L95,558L78,420Z" fill="#abeab2" stroke="#abeab2"/><path d="M78,420L95,558L171,425Z" fill="#a7e8ac" stroke="#a7e8ac"/><path d="M171,425L95,558L172,555Z" fill="#9be2a5" stroke="#9be2a5"/><path d="M171,425L172,555L372,397Z" fill="#a0e5a4" stroke="#a0e5a4"/><path d="M372,397L172,555L410,582Z" fill="#8fdd99" stroke="#8fdd99"/><path d="M372,397L410,582L521,549Z" fill="#87da91" stroke="#87da91"/><path d="M372,397L521,549L498,316Z" fill="#99e398" stroke="#99e398"/><path d="M498,316L521,549L692,368Z" fill="#93e193" stroke="#93e193"/><path d="M692,368L521,549L713,504Z" fill="#80d787" stroke="#80d787"/><path d="M692,368L713,504L780,317Z" fill="#8adc8a" stroke="#8adc8a"/><path d="M780,317L713,504L824,530Z" fill="#7ad581" stroke="#7ad581"/><path d="M780,317L824,530L1028,330Z" fill="#7ed682" stroke="#7ed682"/><path d="M1028,330L824,530L997,553Z" fill="#65ca75" stroke="#65ca75"/><path d="M1028,330L997,553L1123,434Z" fill="#64c974" stroke="#64c974"/><path d="M1123,434L997,553L1097,526Z" fill="#53c16c" stroke="#53c16c"/><path d="M1123,434L1097,526L1330,516Z" fill="#4fbd68" stroke="#4fbd68"/><path d="M1123,434L1330,516L1266,404Z" fill="#54be6b" stroke="#54be6b"/><path d="M1266,404L1330,516L1372,323Z" fill="#58bd6b" stroke="#58bd6b"/><path d="M1372,323L1330,516L1470,537Z" fill="#4bb463" stroke="#4bb463"/><path d="M1372,323L1470,537L1606,388Z" fill="#4eb065" stroke="#4eb065"/><path d="M1606,388L1470,537L1606,508Z" fill="#3ba25b" stroke="#3ba25b"/><path d="M1606,388L1606,508L1668,429Z" fill="#3fa05d" stroke="#3fa05d"/><path d="M1668,429L1606,508L1777,565Z" fill="#319554" stroke="#319554"/><path d="M1668,429L1777,565L1825,472Z" fill="#349053" stroke="#349053"/><path d="M1668,429L1825,472L1860,389Z" fill="#419358" stroke="#419358"/><path d="M1860,389L1825,472L2082,540Z" fill="#388350" stroke="#388350"/><path d="M1860,389L2082,540L2005,318Z" fill="#448454" stroke="#448454"/><path d="M-79,557L-114,867L-68,727Z" fill="#8ccaa1" stroke="#8ccaa1"/><path d="M-79,557L-68,727L71,631Z" fill="#93d6a4" stroke="#93d6a4"/><path d="M-79,557L71,631L95,558Z" fill="#96dca6" stroke="#96dca6"/><path d="M95,558L71,631L172,555Z" fill="#91daa0" stroke="#91daa0"/><path d="M172,555L71,631L283,655Z" fill="#88d498" stroke="#88d498"/><path d="M172,555L283,655L410,582Z" fill="#82d391" stroke="#82d391"/><path d="M410,582L283,655L319,729Z" fill="#77c988" stroke="#77c988"/><path d="M410,582L319,729L553,664Z" fill="#71c781" stroke="#71c781"/><path d="M410,582L553,664L521,549Z" fill="#74cd83" stroke="#74cd83"/><path d="M521,549L553,664L653,669Z" fill="#6ac67b" stroke="#6ac67b"/><path d="M521,549L653,669L713,504Z" fill="#6dcc7d" stroke="#6dcc7d"/><path d="M713,504L653,669L802,670Z" fill="#60c372" stroke="#60c372"/><path d="M713,504L802,670L824,530Z" fill="#61c773" stroke="#61c773"/><path d="M824,530L802,670L997,553Z" fill="#57c06c" stroke="#57c06c"/><path d="M997,553L802,670L1008,729Z" fill="#48b563" stroke="#48b563"/><path d="M997,553L1008,729L1093,700Z" fill="#3eaf5d" stroke="#3eaf5d"/><path d="M997,553L1093,700L1097,526Z" fill="#44b763" stroke="#44b763"/><path d="M1097,526L1093,700L1233,699Z" fill="#38ac5a" stroke="#38ac5a"/><path d="M1097,526L1233,699L1330,516Z" fill="#3cb05d" stroke="#3cb05d"/><path d="M1330,516L1233,699L1468,626Z" fill="#31a454" stroke="#31a454"/><path d="M1330,516L1468,626L1470,537Z" fill="#33a557" stroke="#33a557"/><path d="M1470,537L1468,626L1606,508Z" fill="#2e9d54" stroke="#2e9d54"/><path d="M1606,508L1468,626L1632,662Z" fill="#25934e" stroke="#25934e"/><path d="M1606,508L1632,662L1777,565Z" fill="#228c4c" stroke="#228c4c"/><path d="M1777,565L1632,662L1722,695Z" fill="#1a8045" stroke="#1a8045"/><path d="M1777,565L1722,695L1861,680Z" fill="#197941" stroke="#197941"/><path d="M1777,565L1861,680L1825,472Z" fill="#238048" stroke="#238048"/><path d="M1825,472L1861,680L2082,540Z" fill="#247845" stroke="#247845"/><path d="M2082,540L1861,680L1995,724Z" fill="#19673a" stroke="#19673a"/><path d="M2082,540L1995,724L2054,768Z" fill="#155d35" stroke="#155d35"/><path d="M2082,540L2054,768L2079,1151Z" fill="#003d28" stroke="#003d28"/><path d="M-68,727L-114,867L27,821Z" fill="#7cb697" stroke="#7cb697"/><path d="M-68,727L27,821L71,631Z" fill="#84c59a" stroke="#84c59a"/><path d="M71,631L27,821L212,794Z" fill="#7abe91" stroke="#7abe91"/><path d="M71,631L212,794L283,655Z" fill="#7dc88f" stroke="#7dc88f"/><path d="M283,655L212,794L319,729Z" fill="#72be86" stroke="#72be86"/><path d="M319,729L212,794L358,828Z" fill="#67b17f" stroke="#67b17f"/><path d="M319,729L358,828L553,664Z" fill="#66b77b" stroke="#66b77b"/><path d="M553,664L358,828L520,869Z" fill="#5aab73" stroke="#5aab73"/><path d="M553,664L520,869L653,669Z" fill="#5bb470" stroke="#5bb470"/><path d="M653,669L520,869L719,867Z" fill="#4da367" stroke="#4da367"/><path d="M653,669L719,867L802,670Z" fill="#4fae66" stroke="#4fae66"/><path d="M802,670L719,867L858,833Z" fill="#419f5d" stroke="#419f5d"/><path d="M802,670L858,833L973,773Z" fill="#3ea25b" stroke="#3ea25b"/><path d="M802,670L973,773L1008,729Z" fill="#3fa75c" stroke="#3fa75c"/><path d="M1008,729L973,773L1075,863Z" fill="#2d9552" stroke="#2d9552"/><path d="M1008,729L1075,863L1093,700Z" fill="#2c9953" stroke="#2c9953"/><path d="M1093,700L1075,863L1251,830Z" fill="#218d4c" stroke="#218d4c"/><path d="M1093,700L1251,830L1233,699Z" fill="#27964f" stroke="#27964f"/><path d="M1233,699L1251,830L1423,800Z" fill="#1c8847" stroke="#1c8847"/><path d="M1233,699L1423,800L1468,626Z" fill="#22934a" stroke="#22934a"/><path d="M1468,626L1423,800L1621,767Z" fill="#168243" stroke="#168243"/><path d="M1468,626L1621,767L1632,662Z" fill="#198645" stroke="#198645"/><path d="M1632,662L1621,767L1722,695Z" fill="#117a40" stroke="#117a40"/><path d="M1722,695L1621,767L1766,825Z" fill="#096a39" stroke="#096a39"/><path d="M1722,695L1766,825L1820,800Z" fill="#076236" stroke="#076236"/><path d="M1722,695L1820,800L1861,680Z" fill="#0e6939" stroke="#0e6939"/><path d="M1861,680L1820,800L1995,724Z" fill="#0d5f35" stroke="#0d5f35"/><path d="M1995,724L1820,800L2054,768Z" fill="#085330" stroke="#085330"/><path d="M-114,867L-19,1079L-56,967Z" fill="#7b928a" stroke="#7b928a"/><path d="M-114,867L-56,967L27,821Z" fill="#7aa590" stroke="#7aa590"/><path d="M27,821L-56,967L75,976Z" fill="#769b89" stroke="#769b89"/><path d="M27,821L75,976L212,794Z" fill="#6fa586" stroke="#6fa586"/><path d="M212,794L75,976L170,1023Z" fill="#6c957d" stroke="#6c957d"/><path d="M212,794L170,1023L330,1013Z" fill="#669076" stroke="#669076"/><path d="M212,794L330,1013L358,828Z" fill="#629d77" stroke="#629d77"/><path d="M358,828L330,1013L520,869Z" fill="#5b946e" stroke="#5b946e"/><path d="M520,869L330,1013L566,969Z" fill="#568865" stroke="#568865"/><path d="M520,869L566,969L719,867Z" fill="#4c8e61" stroke="#4c8e61"/><path d="M719,867L566,969L638,985Z" fill="#49845b" stroke="#49845b"/><path d="M719,867L638,985L784,955Z" fill="#438256" stroke="#438256"/><path d="M719,867L784,955L858,833Z" fill="#3d8b56" stroke="#3d8b56"/><path d="M858,833L784,955L977,920Z" fill="#36834f" stroke="#36834f"/><path d="M858,833L977,920L973,773Z" fill="#308e52" stroke="#308e52"/><path d="M973,773L977,920L1075,863Z" fill="#29884d" stroke="#29884d"/><path d="M1075,863L977,920L1173,985Z" fill="#237644" stroke="#237644"/><path d="M1075,863L1173,985L1251,830Z" fill="#1d7743" stroke="#1d7743"/><path d="M1251,830L1173,985L1232,1007Z" fill="#1a6a3c" stroke="#1a6a3c"/><path d="M1251,830L1232,1007L1383,1000Z" fill="#166539" stroke="#166539"/><path d="M1251,830L1383,1000L1423,800Z" fill="#13703c" stroke="#13703c"/><path d="M1423,800L1383,1000L1592,1008Z" fill="#0c5933" stroke="#0c5933"/><path d="M1423,800L1592,1008L1621,767Z" fill="#076337" stroke="#076337"/><path d="M1621,767L1592,1008L1690,942Z" fill="#015130" stroke="#015130"/><path d="M1621,767L1690,942L1766,825Z" fill="#005933" stroke="#005933"/><path d="M1766,825L1690,942L1911,1029Z" fill="#003d28" stroke="#003d28"/><path d="M1766,825L1911,1029L1820,800Z" fill="#00442b" stroke="#00442b"/><path d="M1820,800L1911,1029L2006,1022Z" fill="#002e23" stroke="#002e23"/><path d="M1820,800L2006,1022L2054,768Z" fill="#003d28" stroke="#003d28"/><path d="M2054,768L2006,1022L2079,1151Z" fill="#001c1b" stroke="#001c1b"/><path d="M-56,967L-19,1079L75,976Z" fill="#778982" stroke="#778982"/><path d="M75,976L-19,1079L134,1107Z" fill="#727d7a" stroke="#727d7a"/><path d="M75,976L134,1107L170,1023Z" fill="#6e7f76" stroke="#6e7f76"/><path d="M170,1023L134,1107L281,1086Z" fill="#69776e" stroke="#69776e"/><path d="M170,1023L281,1086L330,1013Z" fill="#657b6c" stroke="#657b6c"/><path d="M330,1013L281,1086L398,1166Z" fill="#5f7363" stroke="#5f7363"/><path d="M330,1013L398,1166L493,1135Z" fill="#5b715d" stroke="#5b715d"/><path d="M330,1013L493,1135L566,969Z" fill="#57755f" stroke="#57755f"/><path d="M566,969L493,1135L638,985Z" fill="#4f7458" stroke="#4f7458"/><path d="M638,985L493,1135L724,1112Z" fill="#4b6a51" stroke="#4b6a51"/><path d="M638,985L724,1112L784,955Z" fill="#43714f" stroke="#43714f"/><path d="M784,955L724,1112L811,1158Z" fill="#3e6447" stroke="#3e6447"/><path d="M784,955L811,1158L976,1112Z" fill="#376142" stroke="#376142"/><path d="M784,955L976,1112L977,920Z" fill="#326d46" stroke="#326d46"/><path d="M977,920L976,1112L1173,985Z" fill="#26653f" stroke="#26653f"/><path d="M1173,985L976,1112L1128,1167Z" fill="#215636" stroke="#215636"/><path d="M1173,985L1128,1167L1232,1007Z" fill="#1c5435" stroke="#1c5435"/><path d="M1232,1007L1128,1167L1267,1146Z" fill="#1b4f2f" stroke="#1b4f2f"/><path d="M1232,1007L1267,1146L1383,1000Z" fill="#164d30" stroke="#164d30"/><path d="M1383,1000L1267,1146L1479,1131Z" fill="#114529" stroke="#114529"/><path d="M1383,1000L1479,1131L1546,1109Z" fill="#0c3d27" stroke="#0c3d27"/><path d="M1383,1000L1546,1109L1592,1008Z" fill="#094029" stroke="#094029"/><path d="M1592,1008L1546,1109L1671,1175Z" fill="#033121" stroke="#033121"/><path d="M1592,1008L1671,1175L1690,942Z" fill="#003224" stroke="#003224"/><path d="M1690,942L1671,1175L1911,1029Z" fill="#00271f" stroke="#00271f"/><path d="M1911,1029L1671,1175L1901,1174Z" fill="#001d16" stroke="#001d16"/><path d="M1911,1029L1901,1174L2006,1022Z" fill="#001317" stroke="#001317"/><path d="M2006,1022L1901,1174L2079,1151Z" fill="#000e12" stroke="#000e12"/><path d="M-19,1079L398,1166L134,1107Z" fill="#6b786c" stroke="#6b786c"/><path d="M134,1107L398,1166L281,1086Z" fill="#647564" stroke="#647564"/><path d="M398,1166L1671,1175L1128,1167Z" fill="#245730" stroke="#245730"/><path d="M398,1166L1128,1167L811,1158Z" fill="#3e643f" stroke="#3e643f"/><path d="M398,1166L811,1158L493,1135Z" fill="#4f6c4e" stroke="#4f6c4e"/><path d="M493,1135L811,1158L724,1112Z" fill="#466848" stroke="#466848"/><path d="M811,1158L1128,1167L976,1112Z" fill="#2c5b36" stroke="#2c5b36"/><path d="M1128,1167L1671,1175L1267,1146Z" fill="#134724" stroke="#134724"/><path d="M1267,1146L1671,1175L1479,1131Z" fill="#0b3d21" stroke="#0b3d21"/><path d="M1479,1131L1671,1175L1546,1109Z" fill="#05341f" stroke="#05341f"/></g></svg>